<svg xmlns="http://www.w3.org/2000/svg" width="1024" height="1024" viewBox="0 0 1024 1024" role="img" aria-label="Hatch app icon — pen drawing a color stroke">
  <defs>
    <radialGradient id="bg" cx=".42" cy=".34" r=".95">
      <stop offset="0" stop-color="#262019"/><stop offset=".55" stop-color="#181209"/><stop offset="1" stop-color="#0e0a06"/>
    </radialGradient>
    <linearGradient id="spectrum" x1="250" y1="700" x2="772" y2="440" gradientUnits="userSpaceOnUse">
      <stop offset="0" stop-color="#e0492a"/><stop offset=".22" stop-color="#ef9a36"/>
      <stop offset=".45" stop-color="#46b06a"/><stop offset=".67" stop-color="#2f96c0"/>
      <stop offset=".85" stop-color="#4a55c8"/><stop offset="1" stop-color="#9a4fd0"/>
    </linearGradient>
    <linearGradient id="graphite" x1="0" y1="0" x2="1" y2="0">
      <stop offset="0" stop-color="#4a4640"/><stop offset=".5" stop-color="#1f1c18"/><stop offset="1" stop-color="#322e29"/>
    </linearGradient>
    <linearGradient id="brass" x1="0" y1="0" x2="1" y2="0">
      <stop offset="0" stop-color="#f3d79a"/><stop offset=".5" stop-color="#c79a52"/><stop offset="1" stop-color="#8a6a35"/>
    </linearGradient>
    <filter id="glow" x="-40%" y="-40%" width="180%" height="180%"><feGaussianBlur stdDeviation="34"/></filter>
    <filter id="penShadow" x="-40%" y="-40%" width="180%" height="180%">
      <feDropShadow dx="-10" dy="16" stdDeviation="18" flood-color="#000" flood-opacity="0.45"/>
    </filter>
    <filter id="grain"><feTurbulence type="fractalNoise" baseFrequency=".85" numOctaves="2" result="n"/>
      <feColorMatrix in="n" type="matrix" values="0 0 0 0 0 0 0 0 0 0 0 0 0 0 0 0 0 0 .5 0"/></filter>
  </defs>

  <rect width="1024" height="1024" fill="url(#bg)"/>

  <!-- scaled + centered motif -->
  <g transform="translate(512 512) scale(1.2) translate(-512 -512) translate(-26 22)">
    <!-- color stroke: bloom + crisp ribbon -->
    <path d="M250 700 C 380 505, 560 400, 772 440 C 560 620, 380 720, 250 700 Z"
          fill="url(#spectrum)" filter="url(#glow)" opacity=".55"/>
    <path d="M250 700 C 380 505, 560 400, 772 440 C 560 620, 380 720, 250 700 Z"
          fill="url(#spectrum)"/>
    <path d="M300 662 C 410 535, 560 455, 730 470 C 580 535, 430 615, 300 662 Z"
          fill="#ffffff" opacity=".13"/>

    <!-- sleek fountain pen, nib at the leading end of the stroke -->
    <g transform="translate(772 446) rotate(30)" filter="url(#penShadow)">
      <rect x="-26" y="-300" width="52" height="226" rx="24" fill="url(#graphite)"/>
      <rect x="-20" y="-296" width="9" height="216" rx="5" fill="#fff" opacity=".10"/>
      <rect x="14" y="-286" width="9" height="86" rx="5" fill="#6f675c"/>
      <rect x="-27" y="-92" width="54" height="20" rx="8" fill="url(#brass)"/>
      <rect x="-27" y="-118" width="54" height="20" rx="8" fill="#cf4a2c"/>
      <path d="M-23 -74 L 0 6 L 23 -74 Z" fill="url(#brass)"/>
      <path d="M0 6 L 0 -60" stroke="#7a5d2e" stroke-width="4" stroke-linecap="round"/>
      <circle cx="0" cy="-48" r="5" fill="#7a5d2e"/>
    </g>
  </g>

  <rect width="1024" height="1024" filter="url(#grain)" opacity=".05" style="mix-blend-mode:overlay"/>
</svg>
